<?xml version="1.0" encoding="utf-8"?>
<!-- Generator: Adobe Illustrator 16.0.0, SVG Export Plug-In . SVG Version: 6.00 Build 0)  -->
<!DOCTYPE svg PUBLIC "-//W3C//DTD SVG 1.1//EN" "http://www.w3.org/Graphics/SVG/1.1/DTD/svg11.dtd">
<svg version="1.1" id="Layer_1" xmlns="http://www.w3.org/2000/svg" xmlns:xlink="http://www.w3.org/1999/xlink" x="0px" y="0px"
	 viewBox="0 0 400 400" enable-background="new 0 0 400 400" xml:space="preserve">
<g>
	<path fill="#44195D" d="M334.99,125.043H65.01c-14.889,0-27.026,12.102-27.026,27.026v73.917c0,4.904,1.341,9.491,3.634,13.514
		c0.07,0.247,0.176,0.459,0.317,0.67l18.77,32.495c0.812,1.411,2.329,2.293,3.952,2.293s3.105-0.882,3.952-2.293l11.361-19.652
		h255.02c14.924,0,27.026-12.102,27.026-27.026v-73.917C362.017,137.145,349.914,125.043,334.99,125.043 M352.243,225.985
		c0,9.526-7.727,17.253-17.253,17.253H65.01c-9.526,0-17.253-7.727-17.253-17.253v-73.917c0-9.526,7.727-17.253,17.253-17.253
		h269.98c9.526,0,17.253,7.727,17.253,17.253V225.985z"/>
	<path fill="#FFFFFF" d="M334.99,134.816H65.01c-9.526,0-17.253,7.726-17.253,17.253v73.917c0,9.525,7.727,17.252,17.253,17.252
		h269.98c9.525,0,17.253-7.727,17.253-17.252v-73.917C352.243,142.542,344.516,134.816,334.99,134.816 M111.971,219.423h-6.739
		c-1.905,0-3.493-0.6-4.693-1.8c-1.235-1.235-1.834-2.787-1.834-4.728v-26.145c0-3.069-0.918-5.292-2.788-6.739
		c-1.87-1.411-3.951-2.081-6.245-2.081c-2.328,0-4.375,0.67-6.174,2.081c-1.799,1.447-2.682,3.67-2.682,6.739v32.672H67.339v-29.99
		c0-8.715,2.293-14.537,6.845-17.5c4.551-2.929,9.561-4.552,15.1-4.799c5.645,0,10.832,1.482,15.56,4.446
		c4.763,2.929,7.127,8.891,7.127,17.853V219.423z M159.955,199.065c0,5.116-0.953,9.139-2.787,12.031
		c-1.871,2.858-4.093,4.94-6.669,6.21c-2.682,1.411-5.54,2.294-8.538,2.61c-3,0.318-5.681,0.495-7.974,0.495
		c-4.622,0-8.644-1.271-12.137-3.74c-3.458-2.541-5.187-6.669-5.187-12.384c0-5.434,1.553-9.28,4.728-11.573
		c3.14-2.293,7.127-3.845,11.996-4.622c0.67,0,1.411-0.071,2.329-0.282c0.882-0.176,1.905-0.353,3.069-0.494
		c5.645-0.777,8.468-2.4,8.468-4.975c0-1.941-1.023-3.175-2.999-3.775c-1.976-0.565-3.811-0.847-5.469-0.847
		c-1.799,0-3.422,0.247-4.798,0.776c-1.411,0.495-2.435,1.482-3.105,2.894h-12.878c0.529-3.987,2.293-7.269,5.398-9.809
		c3.458-2.964,8.397-4.446,14.784-4.446c7.197,0,12.595,1.236,16.159,3.67c3.739,2.54,5.61,6.139,5.61,10.761V199.065z
		 M179.254,219.423l-17.853-51.124h14.219l10.196,35.988l9.033-31.366c1.023-3.105,3.069-4.622,6.139-4.622h9.984l-18.064,51.124
		H179.254z M256.875,195.996c0,0.635-0.035,1.093-0.176,1.34h-33.236c0.105,3.987,1.059,6.951,2.857,8.856
		c1.658,2.012,4.164,3.068,7.479,3.068c2.224,0,4.059-0.458,5.575-1.375c0.388-0.105,0.741-0.354,1.094-0.636
		c0.317-0.353,0.635-0.706,1.059-1.058c0.105-0.389,0.6-0.917,1.411-1.553c0.847-0.636,2.047-0.952,3.563-0.952h9.632
		c-1.411,5.362-4.128,9.49-8.08,12.277c-3.986,2.964-8.961,4.446-14.994,4.446c-7.304,0-13.02-2.364-17.111-7.127
		c-4.129-4.622-6.175-11.221-6.175-19.794c0-8.22,1.976-14.606,5.963-19.229c4.093-4.727,9.808-7.127,17.111-7.127
		c7.728,0,13.654,2.329,17.924,6.915c4.058,4.764,6.104,11.362,6.104,19.829V195.996z M305.882,219.423h-6.703
		c-1.94,0-3.493-0.6-4.728-1.8c-1.2-1.235-1.835-2.787-1.835-4.728v-26.145c0-3.069-0.918-5.292-2.787-6.739
		c-1.87-1.411-3.952-2.081-6.245-2.081c-2.329,0-4.375,0.67-6.14,2.081c-1.8,1.447-2.717,3.67-2.717,6.739v32.672h-13.442v-29.99
		c0-8.715,2.294-14.537,6.845-17.5c4.517-2.929,9.562-4.552,15.065-4.799c5.646,0,10.832,1.482,15.595,4.446
		c4.728,2.929,7.092,8.891,7.092,17.853V219.423z M332.626,173.768c0,1.904-0.6,3.493-1.905,4.727
		c-1.27,1.2-2.822,1.799-4.587,1.799h-1.376v25.898c0,2.187,1.307,3.246,3.846,3.246h4.022v9.984
		c-4.234,0.282-8.785,0.212-13.725-0.177c-4.939-0.387-7.409-3.528-7.409-9.42v-56.522h6.915c1.693,0,3.176,0.635,4.445,1.941
		c1.271,1.269,1.905,2.786,1.905,4.586v8.645h7.868V173.768z"/>
	<path fill="#44195D" d="M104.844,171.58c-4.728-2.964-9.915-4.446-15.56-4.446c-5.539,0.247-10.549,1.87-15.1,4.799
		c-4.551,2.963-6.845,8.785-6.845,17.5v29.99h13.478v-32.672c0-3.069,0.882-5.292,2.681-6.739c1.8-1.411,3.846-2.081,6.175-2.081
		c2.293,0,4.375,0.67,6.244,2.081c1.87,1.447,2.788,3.67,2.788,6.739v26.145c0,1.94,0.599,3.492,1.834,4.728
		c1.2,1.2,2.788,1.8,4.693,1.8h6.739v-29.99C111.971,180.471,109.607,174.509,104.844,171.58"/>
	<path fill="#44195D" d="M154.345,170.804c-3.563-2.434-8.962-3.67-16.159-3.67c-6.386,0-11.326,1.482-14.783,4.446
		c-3.105,2.54-4.869,5.822-5.399,9.809h12.878c0.671-1.411,1.694-2.399,3.105-2.894c1.376-0.529,2.999-0.776,4.798-0.776
		c1.659,0,3.494,0.282,5.469,0.847c1.976,0.6,2.999,1.834,2.999,3.775c0,2.576-2.823,4.199-8.468,4.975
		c-1.164,0.141-2.187,0.318-3.069,0.494c-0.917,0.211-1.659,0.282-2.329,0.282c-4.869,0.777-8.855,2.329-11.996,4.622
		c-3.175,2.293-4.728,6.139-4.728,11.573c0,5.715,1.729,9.843,5.187,12.384c3.493,2.469,7.515,3.74,12.137,3.74
		c2.294,0,4.975-0.177,7.974-0.494c2.999-0.317,5.857-1.2,8.538-2.611c2.576-1.27,4.799-3.352,6.669-6.21
		c1.834-2.892,2.787-6.915,2.787-12.031v-17.5C159.955,176.943,158.084,173.344,154.345,170.804 M147.43,198.501
		c0,3.563-1.023,6.385-3.07,8.467c-2.046,2.047-4.869,3.034-8.468,3.034c-2.152,0-3.845-0.494-5.01-1.517
		c-1.129-1.129-1.728-2.682-1.728-4.621c0-1.412,0.458-2.823,1.34-4.235c1.059-1.023,2.717-1.835,5.01-2.504l4.446-0.954
		c3.175-0.74,5.716-1.587,7.48-2.469V198.501z"/>
	<path fill="#FFFFFF" d="M147.43,193.702v4.799c0,3.562-1.023,6.385-3.07,8.467c-2.046,2.047-4.869,3.034-8.468,3.034
		c-2.152,0-3.845-0.494-5.01-1.517c-1.129-1.129-1.728-2.682-1.728-4.621c0-1.412,0.458-2.823,1.34-4.235
		c1.059-1.023,2.717-1.835,5.01-2.505l4.446-0.953C143.125,195.431,145.666,194.584,147.43,193.702"/>
	<path fill="#44195D" d="M200.988,168.299c-3.069,0-5.117,1.517-6.14,4.622l-9.032,31.366l-10.197-35.988h-14.219l17.853,51.124
		h13.654l18.065-51.124H200.988z"/>
	<path fill="#44195D" d="M250.771,174.05c-4.269-4.586-10.195-6.915-17.923-6.915c-7.303,0-13.019,2.399-17.111,7.126
		c-3.987,4.623-5.964,11.009-5.964,19.229c0,8.574,2.047,15.172,6.176,19.794c4.092,4.764,9.808,7.127,17.111,7.127
		c6.033,0,11.007-1.482,14.994-4.445c3.952-2.788,6.669-6.915,8.08-12.279h-9.632c-1.517,0-2.717,0.317-3.563,0.953
		c-0.812,0.635-1.306,1.164-1.411,1.552c-0.424,0.354-0.741,0.706-1.059,1.06c-0.353,0.28-0.706,0.528-1.094,0.635
		c-1.518,0.917-3.353,1.375-5.575,1.375c-3.315,0-5.821-1.057-7.479-3.069c-1.8-1.904-2.752-4.869-2.857-8.855h33.236
		c0.141-0.247,0.176-0.705,0.176-1.34v-2.117C256.875,185.411,254.829,178.812,250.771,174.05 M223.463,188.657
		c0.105-3.316,1.058-5.857,2.857-7.656c1.8-1.8,4.093-2.682,6.916-2.682c3.069,0,5.469,0.882,7.127,2.682
		c1.517,1.657,2.434,4.234,2.682,7.656H223.463z"/>
	<path fill="#FFFFFF" d="M243.044,188.657h-19.581c0.105-3.316,1.059-5.857,2.857-7.656c1.8-1.8,4.093-2.682,6.915-2.682
		c3.07,0,5.469,0.882,7.127,2.682C241.879,182.658,242.798,185.235,243.044,188.657"/>
	<path fill="#44195D" d="M298.79,171.58c-4.763-2.964-9.949-4.446-15.595-4.446c-5.504,0.247-10.549,1.87-15.065,4.799
		c-4.551,2.963-6.845,8.785-6.845,17.5v29.99h13.442v-32.672c0-3.069,0.917-5.292,2.717-6.739c1.764-1.411,3.811-2.081,6.139-2.081
		c2.294,0,4.375,0.67,6.246,2.081c1.869,1.447,2.787,3.67,2.787,6.739v26.145c0,1.94,0.635,3.492,1.835,4.728
		c1.234,1.2,2.787,1.8,4.728,1.8h6.703v-29.99C305.882,180.471,303.518,174.509,298.79,171.58"/>
	<path fill="#44195D" d="M326.134,180.294c1.764,0,3.317-0.6,4.587-1.799c1.306-1.235,1.905-2.823,1.905-4.727v-5.293h-7.867v-8.644
		c0-1.8-0.636-3.317-1.906-4.587c-1.27-1.305-2.752-1.94-4.445-1.94h-6.915v56.522c0,5.893,2.47,9.032,7.409,9.42
		c4.939,0.389,9.49,0.458,13.725,0.177v-9.984h-4.022c-2.54,0-3.845-1.061-3.845-3.247v-25.897H326.134z"/>
</g>
</svg>
